<svg width="530" height="186" viewBox="0 0 530 186" fill="none" xmlns="http://www.w3.org/2000/svg">
<g clip-path="url(#clip0_84_240)">
<rect width="530" height="186" fill="white"/>
<path d="M62 100H95V135H62V100Z" fill="#F9DDF6"/>
<path d="M73.7288 125H71.7486L76.1979 112.636H78.3531L82.8023 125H80.8222L77.3268 114.882H77.2302L73.7288 125ZM74.0608 120.158H80.4841V121.728H74.0608V120.158Z" fill="#272727"/>
<path d="M102 100H122V135H102V100Z" fill="#F9DDF6"/>
<path d="M111.255 125.115C110.925 125.115 110.641 124.998 110.404 124.765C110.166 124.527 110.047 124.241 110.047 123.907C110.047 123.577 110.166 123.296 110.404 123.062C110.641 122.825 110.925 122.706 111.255 122.706C111.585 122.706 111.868 122.825 112.106 123.062C112.343 123.296 112.462 123.577 112.462 123.907C112.462 124.129 112.406 124.332 112.293 124.517C112.184 124.698 112.04 124.843 111.858 124.952C111.677 125.06 111.476 125.115 111.255 125.115ZM111.255 118.365C110.925 118.365 110.641 118.247 110.404 118.009C110.166 117.772 110.047 117.488 110.047 117.158C110.047 116.828 110.166 116.546 110.404 116.313C110.641 116.075 110.925 115.957 111.255 115.957C111.585 115.957 111.868 116.075 112.106 116.313C112.343 116.546 112.462 116.828 112.462 117.158C112.462 117.379 112.406 117.583 112.293 117.768C112.184 117.949 112.04 118.094 111.858 118.202C111.677 118.311 111.476 118.365 111.255 118.365Z" fill="#272727"/>
<path d="M129 100H153V135H129V100Z" fill="#E3E2E2"/>
<path d="M136.976 125V123.648L141.16 119.313C141.607 118.842 141.975 118.43 142.265 118.076C142.559 117.717 142.778 117.377 142.923 117.055C143.068 116.733 143.14 116.391 143.14 116.029C143.14 115.619 143.044 115.264 142.85 114.967C142.657 114.665 142.394 114.433 142.059 114.272C141.725 114.107 141.349 114.025 140.931 114.025C140.488 114.025 140.102 114.115 139.771 114.297C139.441 114.478 139.188 114.733 139.011 115.063C138.834 115.393 138.745 115.78 138.745 116.222H136.964C136.964 115.47 137.137 114.812 137.483 114.248C137.83 113.685 138.305 113.248 138.908 112.938C139.512 112.624 140.198 112.467 140.967 112.467C141.744 112.467 142.428 112.622 143.019 112.932C143.615 113.238 144.08 113.657 144.414 114.188C144.748 114.715 144.915 115.311 144.915 115.975C144.915 116.434 144.828 116.882 144.655 117.321C144.486 117.76 144.191 118.249 143.768 118.788C143.345 119.323 142.758 119.973 142.005 120.738L139.548 123.31V123.4H145.114V125H136.976Z" fill="#272727"/>
<path d="M431 146H464V181H431V146Z" fill="#F9DDF6"/>
<path d="M442.729 171H440.749L445.198 158.636H447.353L451.802 171H449.822L446.327 160.882H446.23L442.729 171ZM443.061 166.158H449.484V167.728H443.061V166.158Z" fill="#272727"/>
<path d="M471 146H491V181H471V146Z" fill="#F9DDF6"/>
<path d="M480.255 171.115C479.925 171.115 479.641 170.998 479.404 170.765C479.166 170.527 479.047 170.241 479.047 169.907C479.047 169.577 479.166 169.296 479.404 169.062C479.641 168.825 479.925 168.706 480.255 168.706C480.585 168.706 480.868 168.825 481.106 169.062C481.343 169.296 481.462 169.577 481.462 169.907C481.462 170.129 481.406 170.332 481.293 170.517C481.184 170.698 481.04 170.843 480.858 170.952C480.677 171.06 480.476 171.115 480.255 171.115ZM480.255 164.365C479.925 164.365 479.641 164.247 479.404 164.009C479.166 163.772 479.047 163.488 479.047 163.158C479.047 162.828 479.166 162.546 479.404 162.313C479.641 162.075 479.925 161.957 480.255 161.957C480.585 161.957 480.868 162.075 481.106 162.313C481.343 162.546 481.462 162.828 481.462 163.158C481.462 163.379 481.406 163.583 481.293 163.768C481.184 163.949 481.04 164.094 480.858 164.202C480.677 164.311 480.476 164.365 480.255 164.365Z" fill="#272727"/>
<path d="M498 146H522V181H498V146Z" fill="#E3E2E2"/>
<path d="M505.368 168.585V167.076L510.711 158.636H511.9V160.858H511.146L507.324 166.907V167.004H514.647V168.585H505.368ZM511.23 171V168.126L511.242 167.438V158.636H513.011V171H511.23Z" fill="#272727"/>
<path d="M62 62H95V97H62V62Z" fill="#DDF7F9"/>
<path d="M76.6491 82.9915H78.4844L79.7763 84.6758L80.386 85.4244L82.4446 88.1108H80.5369L79.1605 86.3178L78.6896 85.6658L76.6491 82.9915ZM82.843 80.8182C82.843 82.1383 82.6015 83.2732 82.1186 84.223C81.6356 85.1688 80.9736 85.8973 80.1324 86.4084C79.2953 86.9155 78.3435 87.169 77.277 87.169C76.2064 87.169 75.2506 86.9155 74.4094 86.4084C73.5723 85.8973 72.9123 85.1668 72.4293 84.217C71.9464 83.2672 71.7049 82.1342 71.7049 80.8182C71.7049 79.4981 71.9464 78.3652 72.4293 77.4194C72.9123 76.4696 73.5723 75.7411 74.4094 75.234C75.2506 74.7229 76.2064 74.4673 77.277 74.4673C78.3435 74.4673 79.2953 74.7229 80.1324 75.234C80.9736 75.7411 81.6356 76.4696 82.1186 77.4194C82.6015 78.3652 82.843 79.4981 82.843 80.8182ZM80.9957 80.8182C80.9957 79.812 80.8327 78.9648 80.5067 78.2766C80.1848 77.5844 79.742 77.0612 79.1786 76.707C78.6192 76.3488 77.9853 76.1697 77.277 76.1697C76.5646 76.1697 75.9287 76.3488 75.3693 76.707C74.8099 77.0612 74.3672 77.5844 74.0412 78.2766C73.7192 78.9648 73.5582 79.812 73.5582 80.8182C73.5582 81.8243 73.7192 82.6735 74.0412 83.3658C74.3672 84.054 74.8099 84.5772 75.3693 84.9354C75.9287 85.2895 76.5646 85.4666 77.277 85.4666C77.9853 85.4666 78.6192 85.2895 79.1786 84.9354C79.742 84.5772 80.1848 84.054 80.5067 83.3658C80.8327 82.6735 80.9957 81.8243 80.9957 80.8182Z" fill="#272727"/>
<path d="M102 62H122V97H102V62Z" fill="#DDF7F9"/>
<path d="M111.255 87.1147C110.925 87.1147 110.641 86.998 110.404 86.7646C110.166 86.5271 110.047 86.2414 110.047 85.9073C110.047 85.5773 110.166 85.2956 110.404 85.0621C110.641 84.8247 110.925 84.706 111.255 84.706C111.585 84.706 111.868 84.8247 112.106 85.0621C112.343 85.2956 112.462 85.5773 112.462 85.9073C112.462 86.1287 112.406 86.3319 112.293 86.517C112.184 86.6982 112.04 86.843 111.858 86.9517C111.677 87.0604 111.476 87.1147 111.255 87.1147ZM111.255 80.3654C110.925 80.3654 110.641 80.2467 110.404 80.0092C110.166 79.7718 110.047 79.488 110.047 79.158C110.047 78.828 110.166 78.5463 110.404 78.3129C110.641 78.0754 110.925 77.9567 111.255 77.9567C111.585 77.9567 111.868 78.0754 112.106 78.3129C112.343 78.5463 112.462 78.828 112.462 79.158C112.462 79.3794 112.406 79.5826 112.293 79.7678C112.184 79.9489 112.04 80.0937 111.858 80.2024C111.677 80.3111 111.476 80.3654 111.255 80.3654Z" fill="#272727"/>
<path d="M129 62H183V97H129V62Z" fill="#E3E2E2"/>
<path d="M136.355 87L132.926 74.6364H134.888L137.297 84.2109H137.411L139.917 74.6364H141.86L144.366 84.217H144.481L146.883 74.6364H148.851L145.416 87H143.539L140.937 77.7393H140.84L138.238 87H136.355ZM152.212 81.4943V87H150.407V74.6364H152.188V79.2365H152.303C152.52 78.7375 152.852 78.341 153.299 78.0472C153.746 77.7534 154.329 77.6065 155.05 77.6065C155.686 77.6065 156.241 77.7373 156.716 77.9989C157.195 78.2605 157.565 78.6509 157.827 79.1701C158.092 79.6853 158.225 80.3292 158.225 81.1019V87H156.42V81.3192C156.42 80.6391 156.245 80.1119 155.895 79.7376C155.545 79.3593 155.058 79.1701 154.434 79.1701C154.007 79.1701 153.625 79.2607 153.287 79.4418C152.953 79.6229 152.689 79.8885 152.496 80.2386C152.307 80.5848 152.212 81.0033 152.212 81.4943ZM163.332 87.2053C162.745 87.2053 162.213 87.0966 161.739 86.8793C161.264 86.6579 160.887 86.3379 160.61 85.9194C160.336 85.5008 160.199 84.9877 160.199 84.38C160.199 83.8568 160.3 83.4261 160.501 83.0881C160.702 82.75 160.974 82.4824 161.316 82.2852C161.658 82.0879 162.04 81.939 162.463 81.8384C162.886 81.7378 163.316 81.6613 163.755 81.609C164.31 81.5446 164.761 81.4923 165.107 81.4521C165.453 81.4078 165.705 81.3374 165.862 81.2408C166.019 81.1442 166.097 80.9872 166.097 80.7699V80.7276C166.097 80.2004 165.948 79.7919 165.651 79.5021C165.357 79.2124 164.918 79.0675 164.334 79.0675C163.727 79.0675 163.248 79.2023 162.898 79.4719C162.552 79.7376 162.312 80.0334 162.179 80.3594L160.483 79.973C160.684 79.4096 160.978 78.9548 161.364 78.6087C161.755 78.2585 162.203 78.005 162.711 77.848C163.218 77.687 163.751 77.6065 164.31 77.6065C164.681 77.6065 165.073 77.6508 165.488 77.7393C165.906 77.8239 166.296 77.9808 166.659 78.2102C167.025 78.4396 167.325 78.7676 167.558 79.1942C167.792 79.6168 167.908 80.1662 167.908 80.8423V87H166.146V85.7322H166.073C165.956 85.9657 165.781 86.1951 165.548 86.4205C165.314 86.6458 165.015 86.833 164.648 86.9819C164.282 87.1308 163.843 87.2053 163.332 87.2053ZM163.725 85.7564C164.224 85.7564 164.65 85.6578 165.005 85.4606C165.363 85.2634 165.634 85.0058 165.82 84.6879C166.009 84.3659 166.103 84.0218 166.103 83.6555V82.4602C166.039 82.5246 165.914 82.585 165.729 82.6413C165.548 82.6937 165.341 82.7399 165.107 82.7802C164.874 82.8164 164.646 82.8506 164.425 82.8828C164.204 82.911 164.019 82.9351 163.87 82.9553C163.519 82.9995 163.2 83.074 162.91 83.1786C162.624 83.2833 162.395 83.4342 162.222 83.6314C162.053 83.8246 161.968 84.0821 161.968 84.4041C161.968 84.8509 162.133 85.1889 162.463 85.4183C162.793 85.6437 163.214 85.7564 163.725 85.7564ZM174.641 77.7273V79.1761H169.576V77.7273H174.641ZM170.934 75.5057H172.739V84.2773C172.739 84.6275 172.792 84.8911 172.896 85.0682C173.001 85.2412 173.136 85.36 173.301 85.4244C173.47 85.4847 173.653 85.5149 173.85 85.5149C173.995 85.5149 174.122 85.5049 174.231 85.4847C174.339 85.4646 174.424 85.4485 174.484 85.4364L174.81 86.9276C174.705 86.9678 174.557 87.008 174.363 87.0483C174.17 87.0926 173.929 87.1167 173.639 87.1207C173.164 87.1288 172.721 87.0443 172.311 86.8672C171.9 86.6901 171.568 86.4164 171.315 86.0462C171.061 85.6759 170.934 85.2111 170.934 84.6516V75.5057Z" fill="#272727"/>
<path d="M189 62H223V97H189V62Z" fill="#E3E2E2"/>
<path d="M200.54 87V77.7273H202.345V87H200.54ZM201.451 76.2965C201.137 76.2965 200.868 76.1919 200.642 75.9826C200.421 75.7693 200.31 75.5157 200.31 75.2219C200.31 74.9241 200.421 74.6706 200.642 74.4613C200.868 74.248 201.137 74.1413 201.451 74.1413C201.765 74.1413 202.033 74.248 202.254 74.4613C202.479 74.6706 202.592 74.9241 202.592 75.2219C202.592 75.5157 202.479 75.7693 202.254 75.9826C202.033 76.1919 201.765 76.2965 201.451 76.2965ZM211.722 79.9911L210.085 80.2809C210.017 80.0716 209.908 79.8724 209.759 79.6832C209.615 79.4941 209.417 79.3391 209.168 79.2184C208.918 79.0977 208.606 79.0373 208.232 79.0373C207.721 79.0373 207.294 79.152 206.952 79.3814C206.61 79.6068 206.439 79.8986 206.439 80.2567C206.439 80.5666 206.554 80.8162 206.783 81.0053C207.013 81.1945 207.383 81.3494 207.894 81.4702L209.367 81.8082C210.22 82.0054 210.856 82.3093 211.275 82.7198C211.693 83.1303 211.903 83.6636 211.903 84.3196C211.903 84.875 211.742 85.37 211.42 85.8047C211.102 86.2353 210.657 86.5734 210.085 86.8189C209.518 87.0644 208.86 87.1871 208.111 87.1871C207.073 87.1871 206.226 86.9658 205.57 86.5231C204.914 86.0763 204.511 85.4425 204.362 84.6214L206.107 84.3558C206.216 84.8106 206.439 85.1547 206.777 85.3881C207.115 85.6175 207.556 85.7322 208.099 85.7322C208.691 85.7322 209.164 85.6095 209.518 85.364C209.872 85.1145 210.049 84.8106 210.049 84.4524C210.049 84.1626 209.941 83.9192 209.723 83.7219C209.51 83.5247 209.182 83.3758 208.739 83.2752L207.17 82.9311C206.304 82.7339 205.664 82.42 205.25 81.9893C204.839 81.5587 204.634 81.0134 204.634 80.3533C204.634 79.806 204.787 79.3271 205.093 78.9165C205.399 78.506 205.821 78.1861 206.361 77.9567C206.9 77.7232 207.518 77.6065 208.214 77.6065C209.216 77.6065 210.005 77.8239 210.581 78.2585C211.156 78.6892 211.536 79.2667 211.722 79.9911Z" fill="#272727"/>
<path d="M229 62H253V97H229V62Z" fill="#E3E2E2"/>
<path d="M242.862 74.6364V87H240.991V76.5078H240.919L237.96 78.4396V76.6527L241.045 74.6364H242.862Z" fill="#272727"/>
<path d="M259 62H283V97H259V62Z" fill="#E3E2E2"/>
<path d="M270.187 86.2152V78.0533H271.81V86.2152H270.187ZM266.921 82.9432V81.3192H275.082V82.9432H266.921Z" fill="#272727"/>
<path d="M289 62H313V97H289V62Z" fill="#E3E2E2"/>
<path d="M302.862 74.6364V87H300.991V76.5078H300.919L297.96 78.4396V76.6527L301.045 74.6364H302.862Z" fill="#272727"/>
<path d="M319 62H343V97H319V62Z" fill="#E3E2E2"/>
<path d="M329.722 83.4442V83.3295C329.73 82.581 329.804 81.9853 329.945 81.5426C330.09 81.0999 330.295 80.7417 330.561 80.468C330.826 80.1944 331.146 79.9448 331.521 79.7195C331.762 79.5665 331.979 79.3955 332.173 79.2063C332.366 79.0172 332.519 78.7998 332.631 78.5543C332.744 78.3088 332.801 78.0372 332.801 77.7393C332.801 77.3812 332.716 77.0713 332.547 76.8097C332.378 76.5481 332.153 76.3468 331.871 76.206C331.593 76.0611 331.283 75.9886 330.941 75.9886C330.631 75.9886 330.335 76.053 330.054 76.1818C329.772 76.3106 329.539 76.5118 329.353 76.7855C329.168 77.0552 329.062 77.4033 329.033 77.8299H327.198C327.226 77.1055 327.41 76.4937 327.748 75.9947C328.086 75.4916 328.532 75.1113 329.088 74.8537C329.647 74.5961 330.265 74.4673 330.941 74.4673C331.682 74.4673 332.33 74.6062 332.885 74.8839C333.44 75.1576 333.871 75.5419 334.177 76.0369C334.487 76.5279 334.642 77.1014 334.642 77.7575C334.642 78.2082 334.571 78.6147 334.43 78.9769C334.29 79.3351 334.088 79.6551 333.827 79.9368C333.569 80.2185 333.259 80.468 332.897 80.6854C332.555 80.8987 332.277 81.12 332.064 81.3494C331.855 81.5788 331.702 81.8505 331.605 82.1644C331.509 82.4783 331.456 82.8667 331.448 83.3295V83.4442H329.722ZM330.633 87.1147C330.303 87.1147 330.02 86.998 329.782 86.7646C329.545 86.5271 329.426 86.2414 329.426 85.9073C329.426 85.5773 329.545 85.2956 329.782 85.0621C330.02 84.8247 330.303 84.706 330.633 84.706C330.959 84.706 331.241 84.8247 331.478 85.0621C331.72 85.2956 331.841 85.5773 331.841 85.9073C331.841 86.1287 331.784 86.3319 331.672 86.517C331.563 86.6982 331.418 86.843 331.237 86.9517C331.056 87.0604 330.855 87.1147 330.633 87.1147Z" fill="#272727"/>
<path d="M62 146H95V181H62V146Z" fill="#DDF7F9"/>
<path d="M76.6491 166.991H78.4844L79.7763 168.676L80.386 169.424L82.4446 172.111H80.5369L79.1605 170.318L78.6896 169.666L76.6491 166.991ZM82.843 164.818C82.843 166.138 82.6015 167.273 82.1186 168.223C81.6356 169.169 80.9736 169.897 80.1324 170.408C79.2953 170.915 78.3435 171.169 77.277 171.169C76.2064 171.169 75.2506 170.915 74.4094 170.408C73.5723 169.897 72.9123 169.167 72.4293 168.217C71.9464 167.267 71.7049 166.134 71.7049 164.818C71.7049 163.498 71.9464 162.365 72.4293 161.419C72.9123 160.47 73.5723 159.741 74.4094 159.234C75.2506 158.723 76.2064 158.467 77.277 158.467C78.3435 158.467 79.2953 158.723 80.1324 159.234C80.9736 159.741 81.6356 160.47 82.1186 161.419C82.6015 162.365 82.843 163.498 82.843 164.818ZM80.9957 164.818C80.9957 163.812 80.8327 162.965 80.5067 162.277C80.1848 161.584 79.742 161.061 79.1786 160.707C78.6192 160.349 77.9853 160.17 77.277 160.17C76.5646 160.17 75.9287 160.349 75.3693 160.707C74.8099 161.061 74.3672 161.584 74.0412 162.277C73.7192 162.965 73.5582 163.812 73.5582 164.818C73.5582 165.824 73.7192 166.674 74.0412 167.366C74.3672 168.054 74.8099 168.577 75.3693 168.935C75.9287 169.29 76.5646 169.467 77.277 169.467C77.9853 169.467 78.6192 169.29 79.1786 168.935C79.742 168.577 80.1848 168.054 80.5067 167.366C80.8327 166.674 80.9957 165.824 80.9957 164.818Z" fill="#272727"/>
<path d="M102 146H122V181H102V146Z" fill="#DDF7F9"/>
<path d="M111.255 171.115C110.925 171.115 110.641 170.998 110.404 170.765C110.166 170.527 110.047 170.241 110.047 169.907C110.047 169.577 110.166 169.296 110.404 169.062C110.641 168.825 110.925 168.706 111.255 168.706C111.585 168.706 111.868 168.825 112.106 169.062C112.343 169.296 112.462 169.577 112.462 169.907C112.462 170.129 112.406 170.332 112.293 170.517C112.184 170.698 112.04 170.843 111.858 170.952C111.677 171.06 111.476 171.115 111.255 171.115ZM111.255 164.365C110.925 164.365 110.641 164.247 110.404 164.009C110.166 163.772 110.047 163.488 110.047 163.158C110.047 162.828 110.166 162.546 110.404 162.313C110.641 162.075 110.925 161.957 111.255 161.957C111.585 161.957 111.868 162.075 112.106 162.313C112.343 162.546 112.462 162.828 112.462 163.158C112.462 163.379 112.406 163.583 112.293 163.768C112.184 163.949 112.04 164.094 111.858 164.202C111.677 164.311 111.476 164.365 111.255 164.365Z" fill="#272727"/>
<path d="M129 146H183V181H129V146Z" fill="#E3E2E2"/>
<path d="M136.355 171L132.926 158.636H134.888L137.297 168.211H137.411L139.917 158.636H141.86L144.366 168.217H144.481L146.883 158.636H148.851L145.416 171H143.539L140.937 161.739H140.84L138.238 171H136.355ZM152.212 165.494V171H150.407V158.636H152.188V163.237H152.303C152.52 162.737 152.852 162.341 153.299 162.047C153.746 161.753 154.329 161.607 155.05 161.607C155.686 161.607 156.241 161.737 156.716 161.999C157.195 162.261 157.565 162.651 157.827 163.17C158.092 163.685 158.225 164.329 158.225 165.102V171H156.42V165.319C156.42 164.639 156.245 164.112 155.895 163.738C155.545 163.359 155.058 163.17 154.434 163.17C154.007 163.17 153.625 163.261 153.287 163.442C152.953 163.623 152.689 163.888 152.496 164.239C152.307 164.585 152.212 165.003 152.212 165.494ZM163.332 171.205C162.745 171.205 162.213 171.097 161.739 170.879C161.264 170.658 160.887 170.338 160.61 169.919C160.336 169.501 160.199 168.988 160.199 168.38C160.199 167.857 160.3 167.426 160.501 167.088C160.702 166.75 160.974 166.482 161.316 166.285C161.658 166.088 162.04 165.939 162.463 165.838C162.886 165.738 163.316 165.661 163.755 165.609C164.31 165.545 164.761 165.492 165.107 165.452C165.453 165.408 165.705 165.337 165.862 165.241C166.019 165.144 166.097 164.987 166.097 164.77V164.728C166.097 164.2 165.948 163.792 165.651 163.502C165.357 163.212 164.918 163.067 164.334 163.067C163.727 163.067 163.248 163.202 162.898 163.472C162.552 163.738 162.312 164.033 162.179 164.359L160.483 163.973C160.684 163.41 160.978 162.955 161.364 162.609C161.755 162.259 162.203 162.005 162.711 161.848C163.218 161.687 163.751 161.607 164.31 161.607C164.681 161.607 165.073 161.651 165.488 161.739C165.906 161.824 166.296 161.981 166.659 162.21C167.025 162.44 167.325 162.768 167.558 163.194C167.792 163.617 167.908 164.166 167.908 164.842V171H166.146V169.732H166.073C165.956 169.966 165.781 170.195 165.548 170.42C165.314 170.646 165.015 170.833 164.648 170.982C164.282 171.131 163.843 171.205 163.332 171.205ZM163.725 169.756C164.224 169.756 164.65 169.658 165.005 169.461C165.363 169.263 165.634 169.006 165.82 168.688C166.009 168.366 166.103 168.022 166.103 167.656V166.46C166.039 166.525 165.914 166.585 165.729 166.641C165.548 166.694 165.341 166.74 165.107 166.78C164.874 166.816 164.646 166.851 164.425 166.883C164.204 166.911 164.019 166.935 163.87 166.955C163.519 167 163.2 167.074 162.91 167.179C162.624 167.283 162.395 167.434 162.222 167.631C162.053 167.825 161.968 168.082 161.968 168.404C161.968 168.851 162.133 169.189 162.463 169.418C162.793 169.644 163.214 169.756 163.725 169.756ZM174.641 161.727V163.176H169.576V161.727H174.641ZM170.934 159.506H172.739V168.277C172.739 168.627 172.792 168.891 172.896 169.068C173.001 169.241 173.136 169.36 173.301 169.424C173.47 169.485 173.653 169.515 173.85 169.515C173.995 169.515 174.122 169.505 174.231 169.485C174.339 169.465 174.424 169.449 174.484 169.436L174.81 170.928C174.705 170.968 174.557 171.008 174.363 171.048C174.17 171.093 173.929 171.117 173.639 171.121C173.164 171.129 172.721 171.044 172.311 170.867C171.9 170.69 171.568 170.416 171.315 170.046C171.061 169.676 170.934 169.211 170.934 168.652V159.506Z" fill="#272727"/>
<path d="M189 146H223V181H189V146Z" fill="#E3E2E2"/>
<path d="M200.54 171V161.727H202.345V171H200.54ZM201.451 160.297C201.137 160.297 200.868 160.192 200.642 159.983C200.421 159.769 200.31 159.516 200.31 159.222C200.31 158.924 200.421 158.671 200.642 158.461C200.868 158.248 201.137 158.141 201.451 158.141C201.765 158.141 202.033 158.248 202.254 158.461C202.479 158.671 202.592 158.924 202.592 159.222C202.592 159.516 202.479 159.769 202.254 159.983C202.033 160.192 201.765 160.297 201.451 160.297ZM211.722 163.991L210.085 164.281C210.017 164.072 209.908 163.872 209.759 163.683C209.615 163.494 209.417 163.339 209.168 163.218C208.918 163.098 208.606 163.037 208.232 163.037C207.721 163.037 207.294 163.152 206.952 163.381C206.61 163.607 206.439 163.899 206.439 164.257C206.439 164.567 206.554 164.816 206.783 165.005C207.013 165.194 207.383 165.349 207.894 165.47L209.367 165.808C210.22 166.005 210.856 166.309 211.275 166.72C211.693 167.13 211.903 167.664 211.903 168.32C211.903 168.875 211.742 169.37 211.42 169.805C211.102 170.235 210.657 170.573 210.085 170.819C209.518 171.064 208.86 171.187 208.111 171.187C207.073 171.187 206.226 170.966 205.57 170.523C204.914 170.076 204.511 169.442 204.362 168.621L206.107 168.356C206.216 168.811 206.439 169.155 206.777 169.388C207.115 169.618 207.556 169.732 208.099 169.732C208.691 169.732 209.164 169.609 209.518 169.364C209.872 169.114 210.049 168.811 210.049 168.452C210.049 168.163 209.941 167.919 209.723 167.722C209.51 167.525 209.182 167.376 208.739 167.275L207.17 166.931C206.304 166.734 205.664 166.42 205.25 165.989C204.839 165.559 204.634 165.013 204.634 164.353C204.634 163.806 204.787 163.327 205.093 162.917C205.399 162.506 205.821 162.186 206.361 161.957C206.9 161.723 207.518 161.607 208.214 161.607C209.216 161.607 210.005 161.824 210.581 162.259C211.156 162.689 211.536 163.267 211.722 163.991Z" fill="#272727"/>
<path d="M229 146H253V181H229V146Z" fill="#E3E2E2"/>
<path d="M236.976 171V169.648L241.16 165.313C241.607 164.842 241.975 164.43 242.265 164.076C242.559 163.717 242.778 163.377 242.923 163.055C243.068 162.733 243.14 162.391 243.14 162.029C243.14 161.619 243.044 161.264 242.85 160.967C242.657 160.665 242.394 160.433 242.059 160.272C241.725 160.107 241.349 160.025 240.931 160.025C240.488 160.025 240.102 160.115 239.771 160.297C239.441 160.478 239.188 160.733 239.011 161.063C238.834 161.393 238.745 161.78 238.745 162.222H236.964C236.964 161.47 237.137 160.812 237.483 160.248C237.83 159.685 238.305 159.248 238.908 158.938C239.512 158.624 240.198 158.467 240.967 158.467C241.744 158.467 242.428 158.622 243.019 158.932C243.615 159.238 244.08 159.657 244.414 160.188C244.748 160.715 244.915 161.311 244.915 161.975C244.915 162.434 244.828 162.882 244.655 163.321C244.486 163.76 244.191 164.249 243.768 164.788C243.345 165.323 242.758 165.973 242.005 166.738L239.548 169.31V169.4H245.114V171H236.976Z" fill="#272727"/>
<path d="M259 146H283V181H259V146Z" fill="#E3E2E2"/>
<path d="M270.187 170.215V162.053H271.81V170.215H270.187ZM266.921 166.943V165.319H275.082V166.943H266.921Z" fill="#272727"/>
<path d="M289 146H313V181H289V146Z" fill="#E3E2E2"/>
<path d="M296.976 171V169.648L301.16 165.313C301.607 164.842 301.975 164.43 302.265 164.076C302.559 163.717 302.778 163.377 302.923 163.055C303.068 162.733 303.14 162.391 303.14 162.029C303.14 161.619 303.044 161.264 302.85 160.967C302.657 160.665 302.394 160.433 302.059 160.272C301.725 160.107 301.349 160.025 300.931 160.025C300.488 160.025 300.102 160.115 299.771 160.297C299.441 160.478 299.188 160.733 299.011 161.063C298.834 161.393 298.745 161.78 298.745 162.222H296.964C296.964 161.47 297.137 160.812 297.483 160.248C297.83 159.685 298.305 159.248 298.908 158.938C299.512 158.624 300.198 158.467 300.967 158.467C301.744 158.467 302.428 158.622 303.019 158.932C303.615 159.238 304.08 159.657 304.414 160.188C304.748 160.715 304.915 161.311 304.915 161.975C304.915 162.434 304.828 162.882 304.655 163.321C304.486 163.76 304.191 164.249 303.768 164.788C303.345 165.323 302.758 165.973 302.005 166.738L299.548 169.31V169.4H305.114V171H296.976Z" fill="#272727"/>
<path d="M319 146H343V181H319V146Z" fill="#E3E2E2"/>
<path d="M329.722 167.444V167.33C329.73 166.581 329.804 165.985 329.945 165.543C330.09 165.1 330.295 164.742 330.561 164.468C330.826 164.194 331.146 163.945 331.521 163.719C331.762 163.567 331.979 163.395 332.173 163.206C332.366 163.017 332.519 162.8 332.631 162.554C332.744 162.309 332.801 162.037 332.801 161.739C332.801 161.381 332.716 161.071 332.547 160.81C332.378 160.548 332.153 160.347 331.871 160.206C331.593 160.061 331.283 159.989 330.941 159.989C330.631 159.989 330.335 160.053 330.054 160.182C329.772 160.311 329.539 160.512 329.353 160.786C329.168 161.055 329.062 161.403 329.033 161.83H327.198C327.226 161.105 327.41 160.494 327.748 159.995C328.086 159.492 328.532 159.111 329.088 158.854C329.647 158.596 330.265 158.467 330.941 158.467C331.682 158.467 332.33 158.606 332.885 158.884C333.44 159.158 333.871 159.542 334.177 160.037C334.487 160.528 334.642 161.101 334.642 161.757C334.642 162.208 334.571 162.615 334.43 162.977C334.29 163.335 334.088 163.655 333.827 163.937C333.569 164.219 333.259 164.468 332.897 164.685C332.555 164.899 332.277 165.12 332.064 165.349C331.855 165.579 331.702 165.85 331.605 166.164C331.509 166.478 331.456 166.867 331.448 167.33V167.444H329.722ZM330.633 171.115C330.303 171.115 330.02 170.998 329.782 170.765C329.545 170.527 329.426 170.241 329.426 169.907C329.426 169.577 329.545 169.296 329.782 169.062C330.02 168.825 330.303 168.706 330.633 168.706C330.959 168.706 331.241 168.825 331.478 169.062C331.72 169.296 331.841 169.577 331.841 169.907C331.841 170.129 331.784 170.332 331.672 170.517C331.563 170.698 331.418 170.843 331.237 170.952C331.056 171.06 330.855 171.115 330.633 171.115Z" fill="#272727"/>
<path d="M151.617 3.09091V14H150.296V3.09091H151.617ZM155.352 9.07812V14H154.095V5.81818H155.31V7.09659H155.416C155.608 6.68111 155.899 6.3473 156.29 6.09517C156.681 5.83949 157.185 5.71165 157.803 5.71165C158.357 5.71165 158.841 5.82528 159.257 6.05256C159.672 6.27628 159.996 6.61719 160.226 7.07528C160.457 7.52983 160.573 8.10511 160.573 8.80114V14H159.316V8.88636C159.316 8.24361 159.149 7.7429 158.815 7.38423C158.481 7.02202 158.023 6.84091 157.441 6.84091C157.039 6.84091 156.681 6.92791 156.365 7.10192C156.052 7.27592 155.805 7.52983 155.624 7.86364C155.443 8.19744 155.352 8.60227 155.352 9.07812ZM162.87 17.0682V5.81818H164.084V7.1179H164.233C164.326 6.97585 164.454 6.79474 164.617 6.57457C164.784 6.35085 165.022 6.15199 165.331 5.97798C165.643 5.80043 166.066 5.71165 166.598 5.71165C167.287 5.71165 167.895 5.88388 168.42 6.22834C168.946 6.5728 169.356 7.06108 169.651 7.69318C169.945 8.32528 170.093 9.07102 170.093 9.9304C170.093 10.7969 169.945 11.5479 169.651 12.1836C169.356 12.8157 168.948 13.3058 168.426 13.6538C167.904 13.9982 167.302 14.1705 166.62 14.1705C166.094 14.1705 165.673 14.0835 165.357 13.9094C165.041 13.7319 164.798 13.5312 164.628 13.3075C164.457 13.0803 164.326 12.892 164.233 12.7429H164.127V17.0682H162.87ZM164.106 9.90909C164.106 10.527 164.196 11.0721 164.377 11.5444C164.558 12.0131 164.823 12.3807 165.171 12.647C165.519 12.9098 165.945 13.0412 166.449 13.0412C166.975 13.0412 167.413 12.9027 167.765 12.6257C168.12 12.3452 168.386 11.9687 168.564 11.4964C168.745 11.0206 168.836 10.4915 168.836 9.90909C168.836 9.33381 168.747 8.81534 168.569 8.35369C168.395 7.88849 168.131 7.52095 167.776 7.25107C167.424 6.97763 166.982 6.84091 166.449 6.84091C165.938 6.84091 165.508 6.97053 165.16 7.22976C164.812 7.48544 164.549 7.84411 164.372 8.30575C164.194 8.76385 164.106 9.2983 164.106 9.90909ZM177.167 10.6548V5.81818H178.424V14H177.167V12.6151H177.081C176.89 13.0305 176.591 13.3839 176.187 13.6751C175.782 13.9627 175.27 14.1065 174.652 14.1065C174.141 14.1065 173.687 13.9947 173.289 13.771C172.891 13.5437 172.579 13.2028 172.351 12.7482C172.124 12.2901 172.01 11.7131 172.01 11.017V5.81818H173.268V10.9318C173.268 11.5284 173.434 12.0043 173.768 12.3594C174.106 12.7145 174.535 12.892 175.057 12.892C175.37 12.892 175.688 12.8121 176.011 12.6523C176.337 12.4925 176.611 12.2475 176.831 11.9173C177.055 11.587 177.167 11.1662 177.167 10.6548ZM184.284 5.81818V6.88352H180.044V5.81818H184.284ZM181.28 3.85795H182.537V11.6562C182.537 12.0114 182.589 12.2777 182.692 12.4553C182.798 12.6293 182.933 12.7464 183.097 12.8068C183.264 12.8636 183.439 12.892 183.624 12.892C183.762 12.892 183.876 12.8849 183.965 12.8707C184.054 12.853 184.125 12.8388 184.178 12.8281L184.434 13.9574C184.348 13.9893 184.229 14.0213 184.077 14.0533C183.924 14.0888 183.731 14.1065 183.496 14.1065C183.141 14.1065 182.793 14.0302 182.452 13.8775C182.115 13.7248 181.834 13.4922 181.61 13.1797C181.39 12.8672 181.28 12.473 181.28 11.9972V3.85795Z" fill="#505050"/>
<path d="M5.06268 99V90.2727H10.3297V91.2102H6.1195V94.1591H10.057V95.0966H6.1195V98.0625H10.3979V99H5.06268ZM12.8482 92.4545L14.4164 95.1307L15.9846 92.4545H17.1436L15.03 95.7273L17.1436 99H15.9846L14.4164 96.4602L12.8482 99H11.6891L13.7686 95.7273L11.6891 92.4545H12.8482ZM20.5048 99.1534C20.09 99.1534 19.7136 99.0753 19.3755 98.919C19.0375 98.7599 18.769 98.5312 18.5701 98.233C18.3713 97.9318 18.2718 97.5682 18.2718 97.142C18.2718 96.767 18.3457 96.4631 18.4934 96.2301C18.6412 95.9943 18.8386 95.8097 19.0858 95.6761C19.3329 95.5426 19.6056 95.4432 19.9039 95.3778C20.2051 95.3097 20.5076 95.2557 20.8116 95.2159C21.2093 95.1648 21.5318 95.1264 21.7789 95.1009C22.0289 95.0724 22.2108 95.0256 22.3244 94.9602C22.4409 94.8949 22.4991 94.7812 22.4991 94.6193V94.5852C22.4991 94.1648 22.3841 93.8381 22.1539 93.6051C21.9267 93.3722 21.5815 93.2557 21.1184 93.2557C20.6383 93.2557 20.2619 93.3608 19.9892 93.571C19.7164 93.7812 19.5247 94.0057 19.4139 94.2443L18.4593 93.9034C18.6298 93.5057 18.8571 93.196 19.1412 92.9744C19.4281 92.75 19.7406 92.5937 20.0787 92.5057C20.4196 92.4148 20.7548 92.3693 21.0843 92.3693C21.2946 92.3693 21.536 92.3949 21.8088 92.446C22.0843 92.4943 22.35 92.5952 22.6056 92.7486C22.8642 92.902 23.0787 93.1335 23.2491 93.4432C23.4196 93.7528 23.5048 94.1676 23.5048 94.6875V99H22.4991V98.1136H22.448C22.3798 98.2557 22.2662 98.4077 22.1071 98.5696C21.948 98.7315 21.7363 98.8693 21.4721 98.983C21.2079 99.0966 20.8855 99.1534 20.5048 99.1534ZM20.6582 98.25C21.0559 98.25 21.3912 98.1719 21.6639 98.0156C21.9395 97.8594 22.1468 97.6577 22.286 97.4105C22.4281 97.1634 22.4991 96.9034 22.4991 96.6307V95.7102C22.4565 95.7614 22.3627 95.8082 22.2179 95.8509C22.0758 95.8906 21.911 95.9261 21.7235 95.9574C21.5389 95.9858 21.3585 96.0114 21.1824 96.0341C21.0091 96.054 20.8684 96.071 20.7605 96.0852C20.4991 96.1193 20.2548 96.1747 20.0275 96.2514C19.8031 96.3253 19.6213 96.4375 19.4821 96.5881C19.3457 96.7358 19.2775 96.9375 19.2775 97.1932C19.2775 97.5426 19.4068 97.8068 19.6653 97.9858C19.9267 98.1619 20.2576 98.25 20.6582 98.25ZM25.3404 99V92.4545H26.312V93.4773H26.3972C26.5336 93.1278 26.7537 92.8565 27.0577 92.6634C27.3617 92.4673 27.7267 92.3693 28.1529 92.3693C28.5847 92.3693 28.9441 92.4673 29.231 92.6634C29.5208 92.8565 29.7466 93.1278 29.9086 93.4773H29.9767C30.1444 93.1392 30.3958 92.8707 30.731 92.6719C31.0662 92.4702 31.4682 92.3693 31.937 92.3693C32.5222 92.3693 33.0009 92.5526 33.373 92.919C33.7452 93.2827 33.9313 93.8494 33.9313 94.6193V99H32.9256V94.6193C32.9256 94.1364 32.7935 93.7912 32.5293 93.5838C32.2651 93.3764 31.954 93.2727 31.5961 93.2727C31.1358 93.2727 30.7793 93.4119 30.5265 93.6903C30.2736 93.9659 30.1472 94.3153 30.1472 94.7386V99H29.1245V94.517C29.1245 94.1449 29.0037 93.8452 28.7623 93.6179C28.5208 93.3878 28.2097 93.2727 27.829 93.2727C27.5676 93.2727 27.3233 93.3423 27.0961 93.4815C26.8716 93.6207 26.6898 93.8139 26.5506 94.0611C26.4142 94.3054 26.3461 94.5881 26.3461 94.9091V99H25.3404ZM35.7701 101.455V92.4545H36.7417V93.4943H36.861C36.9348 93.3807 37.0371 93.2358 37.1678 93.0597C37.3013 92.8807 37.4917 92.7216 37.7388 92.5824C37.9888 92.4403 38.3269 92.3693 38.753 92.3693C39.3042 92.3693 39.79 92.5071 40.2104 92.7827C40.6309 93.0582 40.959 93.4489 41.1948 93.9545C41.4306 94.4602 41.5485 95.0568 41.5485 95.7443C41.5485 96.4375 41.4306 97.0384 41.1948 97.5469C40.959 98.0526 40.6323 98.4446 40.2147 98.723C39.7971 98.9986 39.3155 99.1364 38.7701 99.1364C38.3496 99.1364 38.013 99.0668 37.7601 98.9276C37.5073 98.7855 37.3127 98.625 37.1763 98.446C37.04 98.2642 36.9348 98.1136 36.861 97.9943H36.7757V101.455H35.7701ZM36.7587 95.7273C36.7587 96.2216 36.8311 96.6577 36.976 97.0355C37.1209 97.4105 37.3326 97.7045 37.611 97.9176C37.8894 98.1278 38.2303 98.233 38.6337 98.233C39.0542 98.233 39.405 98.1222 39.6863 97.9006C39.9703 97.6761 40.1834 97.375 40.3255 96.9972C40.4703 96.6165 40.5428 96.1932 40.5428 95.7273C40.5428 95.267 40.4718 94.8523 40.3297 94.483C40.1905 94.1108 39.9789 93.8168 39.6948 93.6009C39.4135 93.3821 39.0598 93.2727 38.6337 93.2727C38.2246 93.2727 37.8809 93.3764 37.6025 93.5838C37.324 93.7884 37.1138 94.0753 36.9718 94.4446C36.8297 94.8111 36.7587 95.2386 36.7587 95.7273ZM44.0882 90.2727V99H43.0826V90.2727H44.0882ZM48.6745 99.1364C48.0439 99.1364 47.4998 98.9972 47.0424 98.7188C46.5879 98.4375 46.237 98.0455 45.9899 97.5426C45.7456 97.0369 45.6234 96.4489 45.6234 95.7784C45.6234 95.108 45.7456 94.517 45.9899 94.0057C46.237 93.4915 46.5808 93.0909 47.0211 92.804C47.4643 92.5142 47.9814 92.3693 48.5723 92.3693C48.9132 92.3693 49.2498 92.4261 49.5822 92.5398C49.9146 92.6534 50.2172 92.8381 50.4899 93.0938C50.7626 93.3466 50.9799 93.6818 51.1419 94.0994C51.3038 94.517 51.3848 95.0312 51.3848 95.642V96.0682H46.3393V95.1989H50.362C50.362 94.8295 50.2882 94.5 50.1404 94.2102C49.9956 93.9205 49.7882 93.6918 49.5183 93.5241C49.2512 93.3565 48.9359 93.2727 48.5723 93.2727C48.1717 93.2727 47.8251 93.3722 47.5325 93.571C47.2427 93.767 47.0197 94.0227 46.8635 94.3381C46.7072 94.6534 46.6291 94.9915 46.6291 95.3523V95.9318C46.6291 96.4261 46.7143 96.8452 46.8848 97.1889C47.0581 97.5298 47.2981 97.7898 47.6049 97.9688C47.9118 98.1449 48.2683 98.233 48.6745 98.233C48.9387 98.233 49.1774 98.196 49.3904 98.1222C49.6064 98.0455 49.7924 97.9318 49.9487 97.7812C50.1049 97.6278 50.2257 97.4375 50.3109 97.2102L51.2825 97.483C51.1802 97.8125 51.0083 98.1023 50.7669 98.3523C50.5254 98.5994 50.2271 98.7926 49.872 98.9318C49.5169 99.0682 49.1177 99.1364 48.6745 99.1364Z" fill="#505050"/>
<path d="M8.48455 169V160.273H11.4334C12.1181 160.273 12.6777 160.396 13.1124 160.643C13.5499 160.888 13.8738 161.219 14.084 161.636C14.2942 162.054 14.3993 162.52 14.3993 163.034C14.3993 163.548 14.2942 164.016 14.084 164.436C13.8766 164.857 13.5556 165.192 13.1209 165.442C12.6863 165.689 12.1294 165.812 11.4505 165.812H9.33683V164.875H11.4164C11.8851 164.875 12.2615 164.794 12.5456 164.632C12.8297 164.47 13.0357 164.251 13.1635 163.976C13.2942 163.697 13.3596 163.384 13.3596 163.034C13.3596 162.685 13.2942 162.372 13.1635 162.097C13.0357 161.821 12.8283 161.605 12.5414 161.449C12.2544 161.29 11.8738 161.21 11.3993 161.21H9.54137V169H8.48455ZM15.9654 169V162.455H16.937V163.443H17.0051C17.1245 163.119 17.3404 162.857 17.6529 162.655C17.9654 162.453 18.3176 162.352 18.7097 162.352C18.7836 162.352 18.8759 162.354 18.9867 162.357C19.0975 162.359 19.1813 162.364 19.2381 162.369V163.392C19.204 163.384 19.1259 163.371 19.0037 163.354C18.8844 163.334 18.758 163.324 18.6245 163.324C18.3063 163.324 18.0222 163.391 17.7722 163.524C17.525 163.655 17.329 163.837 17.1841 164.07C17.0421 164.3 16.9711 164.562 16.9711 164.858V169H15.9654ZM22.8901 169.136C22.2992 169.136 21.7807 168.996 21.3347 168.714C20.8915 168.433 20.5449 168.04 20.2949 167.534C20.0478 167.028 19.9242 166.437 19.9242 165.761C19.9242 165.08 20.0478 164.484 20.2949 163.976C20.5449 163.467 20.8915 163.072 21.3347 162.791C21.7807 162.51 22.2992 162.369 22.8901 162.369C23.481 162.369 23.998 162.51 24.4412 162.791C24.8873 163.072 25.2338 163.467 25.481 163.976C25.731 164.484 25.856 165.08 25.856 165.761C25.856 166.437 25.731 167.028 25.481 167.534C25.2338 168.04 24.8873 168.433 24.4412 168.714C23.998 168.996 23.481 169.136 22.8901 169.136ZM22.8901 168.233C23.339 168.233 23.7083 168.118 23.998 167.888C24.2878 167.658 24.5023 167.355 24.6415 166.98C24.7807 166.605 24.8503 166.199 24.8503 165.761C24.8503 165.324 24.7807 164.916 24.6415 164.538C24.5023 164.161 24.2878 163.855 23.998 163.622C23.7083 163.389 23.339 163.273 22.8901 163.273C22.4412 163.273 22.0719 163.389 21.7821 163.622C21.4924 163.855 21.2779 164.161 21.1387 164.538C20.9995 164.916 20.9299 165.324 20.9299 165.761C20.9299 166.199 20.9995 166.605 21.1387 166.98C21.2779 167.355 21.4924 167.658 21.7821 167.888C22.0719 168.118 22.4412 168.233 22.8901 168.233ZM27.3912 169V162.455H28.3627V163.477H28.448C28.5843 163.128 28.8045 162.857 29.1085 162.663C29.4125 162.467 29.7775 162.369 30.2037 162.369C30.6355 162.369 30.9949 162.467 31.2818 162.663C31.5716 162.857 31.7974 163.128 31.9593 163.477H32.0275C32.1951 163.139 32.4466 162.871 32.7818 162.672C33.117 162.47 33.519 162.369 33.9877 162.369C34.573 162.369 35.0517 162.553 35.4238 162.919C35.796 163.283 35.9821 163.849 35.9821 164.619V169H34.9764V164.619C34.9764 164.136 34.8443 163.791 34.5801 163.584C34.3159 163.376 34.0048 163.273 33.6468 163.273C33.1866 163.273 32.8301 163.412 32.5772 163.69C32.3244 163.966 32.198 164.315 32.198 164.739V169H31.1752V164.517C31.1752 164.145 31.0545 163.845 30.813 163.618C30.5716 163.388 30.2605 163.273 29.8798 163.273C29.6184 163.273 29.3741 163.342 29.1468 163.482C28.9224 163.621 28.7406 163.814 28.6014 164.061C28.465 164.305 28.3968 164.588 28.3968 164.909V169H27.3912ZM37.8208 171.455V162.455H38.7924V163.494H38.9118C38.9856 163.381 39.0879 163.236 39.2186 163.06C39.3521 162.881 39.5424 162.722 39.7896 162.582C40.0396 162.44 40.3777 162.369 40.8038 162.369C41.3549 162.369 41.8407 162.507 42.2612 162.783C42.6816 163.058 43.0098 163.449 43.2456 163.955C43.4814 164.46 43.5993 165.057 43.5993 165.744C43.5993 166.438 43.4814 167.038 43.2456 167.547C43.0098 168.053 42.6831 168.445 42.2654 168.723C41.8478 168.999 41.3663 169.136 40.8208 169.136C40.4004 169.136 40.0637 169.067 39.8109 168.928C39.5581 168.786 39.3635 168.625 39.2271 168.446C39.0907 168.264 38.9856 168.114 38.9118 167.994H38.8265V171.455H37.8208ZM38.8095 165.727C38.8095 166.222 38.8819 166.658 39.0268 167.036C39.1717 167.411 39.3833 167.705 39.6618 167.918C39.9402 168.128 40.2811 168.233 40.6845 168.233C41.1049 168.233 41.4558 168.122 41.737 167.901C42.0211 167.676 42.2342 167.375 42.3762 166.997C42.5211 166.616 42.5936 166.193 42.5936 165.727C42.5936 165.267 42.5225 164.852 42.3805 164.483C42.2413 164.111 42.0297 163.817 41.7456 163.601C41.4643 163.382 41.1106 163.273 40.6845 163.273C40.2754 163.273 39.9316 163.376 39.6532 163.584C39.3748 163.788 39.1646 164.075 39.0225 164.445C38.8805 164.811 38.8095 165.239 38.8095 165.727ZM47.9799 162.455V163.307H44.5879V162.455H47.9799ZM45.5765 160.886H46.5822V167.125C46.5822 167.409 46.6234 167.622 46.7058 167.764C46.791 167.903 46.899 167.997 47.0297 168.045C47.1632 168.091 47.3038 168.114 47.4515 168.114C47.5623 168.114 47.6532 168.108 47.7243 168.097C47.7953 168.082 47.8521 168.071 47.8947 168.062L48.0993 168.966C48.0311 168.991 47.9359 169.017 47.8137 169.043C47.6916 169.071 47.5368 169.085 47.3493 169.085C47.0652 169.085 46.7868 169.024 46.514 168.902C46.2441 168.78 46.0197 168.594 45.8407 168.344C45.6646 168.094 45.5765 167.778 45.5765 167.398V160.886Z" fill="#505050"/>
<path d="M451.077 8.54545C451.077 9.69602 450.87 10.6903 450.454 11.5284C450.039 12.3665 449.469 13.0128 448.744 13.4673C448.02 13.9219 447.192 14.1491 446.262 14.1491C445.332 14.1491 444.504 13.9219 443.78 13.4673C443.055 13.0128 442.485 12.3665 442.07 11.5284C441.654 10.6903 441.447 9.69602 441.447 8.54545C441.447 7.39489 441.654 6.40057 442.07 5.5625C442.485 4.72443 443.055 4.07812 443.78 3.62358C444.504 3.16903 445.332 2.94176 446.262 2.94176C447.192 2.94176 448.02 3.16903 448.744 3.62358C449.469 4.07812 450.039 4.72443 450.454 5.5625C450.87 6.40057 451.077 7.39489 451.077 8.54545ZM449.799 8.54545C449.799 7.60085 449.641 6.80362 449.325 6.15376C449.012 5.50391 448.588 5.01207 448.052 4.67827C447.519 4.34446 446.922 4.17756 446.262 4.17756C445.601 4.17756 445.003 4.34446 444.467 4.67827C443.934 5.01207 443.51 5.50391 443.194 6.15376C442.881 6.80362 442.725 7.60085 442.725 8.54545C442.725 9.49006 442.881 10.2873 443.194 10.9371C443.51 11.587 443.934 12.0788 444.467 12.4126C445.003 12.7464 445.601 12.9134 446.262 12.9134C446.922 12.9134 447.519 12.7464 448.052 12.4126C448.588 12.0788 449.012 11.587 449.325 10.9371C449.641 10.2873 449.799 9.49006 449.799 8.54545ZM458.284 10.6548V5.81818H459.541V14H458.284V12.6151H458.199C458.007 13.0305 457.709 13.3839 457.304 13.6751C456.899 13.9627 456.388 14.1065 455.77 14.1065C455.259 14.1065 454.804 13.9947 454.407 13.771C454.009 13.5437 453.696 13.2028 453.469 12.7482C453.242 12.2901 453.128 11.7131 453.128 11.017V5.81818H454.385V10.9318C454.385 11.5284 454.552 12.0043 454.886 12.3594C455.223 12.7145 455.653 12.892 456.175 12.892C456.487 12.892 456.805 12.8121 457.128 12.6523C457.455 12.4925 457.729 12.2475 457.949 11.9173C458.172 11.587 458.284 11.1662 458.284 10.6548ZM465.402 5.81818V6.88352H461.162V5.81818H465.402ZM462.398 3.85795H463.655V11.6562C463.655 12.0114 463.706 12.2777 463.809 12.4553C463.916 12.6293 464.051 12.7464 464.214 12.8068C464.381 12.8636 464.557 12.892 464.742 12.892C464.88 12.892 464.994 12.8849 465.083 12.8707C465.171 12.853 465.242 12.8388 465.296 12.8281L465.551 13.9574C465.466 13.9893 465.347 14.0213 465.194 14.0533C465.042 14.0888 464.848 14.1065 464.614 14.1065C464.259 14.1065 463.911 14.0302 463.57 13.8775C463.232 13.7248 462.952 13.4922 462.728 13.1797C462.508 12.8672 462.398 12.473 462.398 11.9972V3.85795ZM467.293 17.0682V5.81818H468.508V7.1179H468.657C468.749 6.97585 468.877 6.79474 469.04 6.57457C469.207 6.35085 469.445 6.15199 469.754 5.97798C470.067 5.80043 470.489 5.71165 471.022 5.71165C471.711 5.71165 472.318 5.88388 472.844 6.22834C473.369 6.5728 473.779 7.06108 474.074 7.69318C474.369 8.32528 474.516 9.07102 474.516 9.9304C474.516 10.7969 474.369 11.5479 474.074 12.1836C473.779 12.8157 473.371 13.3058 472.849 13.6538C472.327 13.9982 471.725 14.1705 471.043 14.1705C470.518 14.1705 470.097 14.0835 469.781 13.9094C469.465 13.7319 469.221 13.5312 469.051 13.3075C468.881 13.0803 468.749 12.892 468.657 12.7429H468.55V17.0682H467.293ZM468.529 9.90909C468.529 10.527 468.619 11.0721 468.801 11.5444C468.982 12.0131 469.246 12.3807 469.594 12.647C469.942 12.9098 470.368 13.0412 470.873 13.0412C471.398 13.0412 471.837 12.9027 472.188 12.6257C472.544 12.3452 472.81 11.9687 472.987 11.4964C473.169 11.0206 473.259 10.4915 473.259 9.90909C473.259 9.33381 473.17 8.81534 472.993 8.35369C472.819 7.88849 472.554 7.52095 472.199 7.25107C471.847 6.97763 471.405 6.84091 470.873 6.84091C470.361 6.84091 469.932 6.97053 469.584 7.22976C469.236 7.48544 468.973 7.84411 468.795 8.30575C468.618 8.76385 468.529 9.2983 468.529 9.90909ZM481.59 10.6548V5.81818H482.847V14H481.59V12.6151H481.505C481.313 13.0305 481.015 13.3839 480.61 13.6751C480.205 13.9627 479.694 14.1065 479.076 14.1065C478.564 14.1065 478.11 13.9947 477.712 13.771C477.314 13.5437 477.002 13.2028 476.775 12.7482C476.547 12.2901 476.434 11.7131 476.434 11.017V5.81818H477.691V10.9318C477.691 11.5284 477.858 12.0043 478.192 12.3594C478.529 12.7145 478.959 12.892 479.481 12.892C479.793 12.892 480.111 12.8121 480.434 12.6523C480.761 12.4925 481.034 12.2475 481.254 11.9173C481.478 11.587 481.59 11.1662 481.59 10.6548ZM488.708 5.81818V6.88352H484.468V5.81818H488.708ZM485.704 3.85795H486.961V11.6562C486.961 12.0114 487.012 12.2777 487.115 12.4553C487.222 12.6293 487.357 12.7464 487.52 12.8068C487.687 12.8636 487.863 12.892 488.047 12.892C488.186 12.892 488.299 12.8849 488.388 12.8707C488.477 12.853 488.548 12.8388 488.601 12.8281L488.857 13.9574C488.772 13.9893 488.653 14.0213 488.5 14.0533C488.347 14.0888 488.154 14.1065 487.919 14.1065C487.564 14.1065 487.216 14.0302 486.875 13.8775C486.538 13.7248 486.258 13.4922 486.034 13.1797C485.814 12.8672 485.704 12.473 485.704 11.9972V3.85795Z" fill="#505050"/>
<path d="M60.1058 45.794V44.2727H67.2734V45.794H64.6016V53H62.7777V45.794H60.1058ZM69.3956 53.1236C68.978 53.1236 68.6058 53.0511 68.2791 52.9062C67.9524 52.7585 67.6939 52.5412 67.5036 52.2543C67.3161 51.9645 67.2223 51.6037 67.2223 51.1719C67.2223 50.8082 67.2891 50.5028 67.4226 50.2557C67.5561 50.0085 67.7379 49.8097 67.968 49.6591C68.1982 49.5085 68.4595 49.3949 68.7521 49.3182C69.0476 49.2415 69.3572 49.1875 69.6811 49.1562C70.0618 49.1165 70.3686 49.0795 70.6016 49.0455C70.8345 49.0085 71.0036 48.9545 71.1087 48.8835C71.2138 48.8125 71.2663 48.7074 71.2663 48.5682V48.5426C71.2663 48.2727 71.1811 48.0639 71.0107 47.9162C70.843 47.7685 70.6044 47.6946 70.2947 47.6946C69.968 47.6946 69.7081 47.767 69.5149 47.9119C69.3217 48.054 69.1939 48.233 69.1314 48.4489L67.4524 48.3125C67.5376 47.9148 67.7053 47.571 67.9553 47.2812C68.2053 46.9886 68.5277 46.7642 68.9226 46.608C69.3203 46.4489 69.7805 46.3693 70.3033 46.3693C70.6669 46.3693 71.0149 46.4119 71.3473 46.4972C71.6825 46.5824 71.9794 46.7145 72.2379 46.8935C72.4993 47.0724 72.7053 47.3026 72.8558 47.5838C73.0064 47.8622 73.0817 48.196 73.0817 48.5852V53H71.3601V52.0923H71.3089C71.2038 52.2969 71.0632 52.4773 70.8871 52.6335C70.7109 52.7869 70.4993 52.9077 70.2521 52.9957C70.005 53.081 69.7195 53.1236 69.3956 53.1236ZM69.9155 51.8707C70.1825 51.8707 70.4183 51.8182 70.6229 51.7131C70.8274 51.6051 70.9879 51.4602 71.1044 51.2784C71.2209 51.0966 71.2791 50.8906 71.2791 50.6605V49.9659C71.2223 50.0028 71.1442 50.0369 71.0447 50.0682C70.9482 50.0966 70.8388 50.1236 70.7166 50.1491C70.5945 50.1719 70.4723 50.1932 70.3501 50.2131C70.228 50.2301 70.1172 50.2457 70.0178 50.2599C69.8047 50.2912 69.6186 50.3409 69.4595 50.4091C69.3004 50.4773 69.1768 50.5696 69.0888 50.6861C69.0007 50.7997 68.9567 50.9418 68.9567 51.1122C68.9567 51.3594 69.0462 51.5483 69.2251 51.679C69.407 51.8068 69.6371 51.8707 69.9155 51.8707ZM79.9361 48.321L78.2741 48.4233C78.2457 48.2812 78.1847 48.1534 78.0909 48.0398C77.9972 47.9233 77.8736 47.831 77.7202 47.7628C77.5696 47.6918 77.3892 47.6562 77.179 47.6562C76.8977 47.6562 76.6605 47.7159 76.4673 47.8352C76.2741 47.9517 76.1776 48.108 76.1776 48.304C76.1776 48.4602 76.2401 48.5923 76.3651 48.7003C76.4901 48.8082 76.7045 48.8949 77.0085 48.9602L78.1932 49.1989C78.8295 49.3295 79.304 49.5398 79.6165 49.8295C79.929 50.1193 80.0852 50.5 80.0852 50.9716C80.0852 51.4006 79.9588 51.777 79.706 52.1009C79.456 52.4247 79.1122 52.6776 78.6747 52.8594C78.2401 53.0384 77.7386 53.1278 77.1705 53.1278C76.304 53.1278 75.6136 52.9474 75.0994 52.5866C74.5881 52.223 74.2884 51.7287 74.2003 51.1037L75.9858 51.0099C76.0398 51.2741 76.1705 51.4759 76.3778 51.6151C76.5852 51.7514 76.8509 51.8196 77.1747 51.8196C77.4929 51.8196 77.7486 51.7585 77.9418 51.6364C78.1378 51.5114 78.2372 51.3509 78.2401 51.1548C78.2372 50.9901 78.1676 50.8551 78.0312 50.75C77.8949 50.642 77.6847 50.5597 77.4006 50.5028L76.267 50.277C75.6278 50.1491 75.152 49.9276 74.8395 49.6122C74.5298 49.2969 74.375 48.8949 74.375 48.4062C74.375 47.9858 74.4886 47.6236 74.7159 47.3196C74.946 47.0156 75.2685 46.7812 75.6832 46.6165C76.1009 46.4517 76.5895 46.3693 77.1491 46.3693C77.9759 46.3693 78.6264 46.544 79.1009 46.8935C79.5781 47.2429 79.8565 47.7187 79.9361 48.321ZM82.8732 51.1165L82.8775 48.9389H83.1417L85.2383 46.4545H87.3221L84.5053 49.7443H84.0749L82.8732 51.1165ZM81.2283 53V44.2727H83.0437V53H81.2283ZM85.3192 53L83.3931 50.1491L84.6033 48.8665L87.4457 53H85.3192ZM89.2738 53.1108C88.9925 53.1108 88.7511 53.0114 88.5494 52.8125C88.3505 52.6108 88.2511 52.3693 88.2511 52.0881C88.2511 51.8097 88.3505 51.571 88.5494 51.3722C88.7511 51.1733 88.9925 51.0739 89.2738 51.0739C89.5465 51.0739 89.7852 51.1733 89.9897 51.3722C90.1942 51.571 90.2965 51.8097 90.2965 52.0881C90.2965 52.2756 90.2482 52.4474 90.1516 52.6037C90.0579 52.7571 89.9343 52.8807 89.7809 52.9744C89.6275 53.0653 89.4585 53.1108 89.2738 53.1108ZM89.2738 48.5256C88.9925 48.5256 88.7511 48.4261 88.5494 48.2273C88.3505 48.0284 88.2511 47.7869 88.2511 47.5028C88.2511 47.2244 88.3505 46.9872 88.5494 46.7912C88.7511 46.5923 88.9925 46.4929 89.2738 46.4929C89.5465 46.4929 89.7852 46.5923 89.9897 46.7912C90.1942 46.9872 90.2965 47.2244 90.2965 47.5028C90.2965 47.6932 90.2482 47.8665 90.1516 48.0227C90.0579 48.1761 89.9343 48.2983 89.7809 48.3892C89.6275 48.4801 89.4585 48.5256 89.2738 48.5256ZM95.2546 53H94.1467L97.3512 44.2727H98.4421L101.647 53H100.539L97.9308 45.6534H97.8626L95.2546 53ZM95.6637 49.5909H100.13V50.5284H95.6637V49.5909ZM103.875 49.0625V53H102.87V46.4545H103.841V47.4773H103.926C104.08 47.1449 104.313 46.8778 104.625 46.6761C104.938 46.4716 105.341 46.3693 105.836 46.3693C106.279 46.3693 106.667 46.4602 106.999 46.642C107.331 46.821 107.59 47.0938 107.775 47.4602C107.959 47.8239 108.051 48.2841 108.051 48.8409V53H107.046V48.9091C107.046 48.3949 106.912 47.9943 106.645 47.7074C106.378 47.4176 106.012 47.2727 105.546 47.2727C105.225 47.2727 104.938 47.3423 104.685 47.4815C104.435 47.6207 104.238 47.8239 104.093 48.0909C103.948 48.358 103.875 48.6818 103.875 49.0625ZM114.526 47.9205L113.622 48.1761C113.565 48.0256 113.482 47.8793 113.371 47.7372C113.263 47.5923 113.115 47.473 112.928 47.3793C112.74 47.2855 112.5 47.2386 112.207 47.2386C111.807 47.2386 111.473 47.331 111.206 47.5156C110.942 47.6974 110.81 47.929 110.81 48.2102C110.81 48.4602 110.901 48.6577 111.082 48.8026C111.264 48.9474 111.548 49.0682 111.935 49.1648L112.906 49.4034C113.491 49.5455 113.928 49.7628 114.214 50.0554C114.501 50.3452 114.645 50.7187 114.645 51.1761C114.645 51.5511 114.537 51.8864 114.321 52.1818C114.108 52.4773 113.81 52.7102 113.426 52.8807C113.043 53.0511 112.597 53.1364 112.088 53.1364C111.42 53.1364 110.868 52.9915 110.43 52.7017C109.993 52.4119 109.716 51.9886 109.599 51.4318L110.554 51.1932C110.645 51.5455 110.817 51.8097 111.07 51.9858C111.325 52.1619 111.659 52.25 112.071 52.25C112.54 52.25 112.912 52.1506 113.188 51.9517C113.466 51.75 113.605 51.5085 113.605 51.2273C113.605 51 113.526 50.8097 113.366 50.6562C113.207 50.5 112.963 50.3835 112.634 50.3068L111.543 50.0511C110.943 49.9091 110.503 49.6889 110.222 49.3906C109.943 49.0895 109.804 48.7131 109.804 48.2614C109.804 47.892 109.908 47.5653 110.115 47.2812C110.325 46.9972 110.611 46.7741 110.972 46.6122C111.335 46.4503 111.747 46.3693 112.207 46.3693C112.855 46.3693 113.364 46.5114 113.733 46.7955C114.105 47.0795 114.369 47.4545 114.526 47.9205ZM117.642 53L115.647 46.4545H116.704L118.119 51.4659H118.187L119.585 46.4545H120.659L122.039 51.4489H122.108L123.522 46.4545H124.579L122.585 53H121.596L120.164 47.9716H120.062L118.63 53H117.642ZM128.43 53.1364C127.8 53.1364 127.256 52.9972 126.798 52.7188C126.344 52.4375 125.993 52.0455 125.746 51.5426C125.501 51.0369 125.379 50.4489 125.379 49.7784C125.379 49.108 125.501 48.517 125.746 48.0057C125.993 47.4915 126.337 47.0909 126.777 46.804C127.22 46.5142 127.737 46.3693 128.328 46.3693C128.669 46.3693 129.006 46.4261 129.338 46.5398C129.67 46.6534 129.973 46.8381 130.246 47.0938C130.518 47.3466 130.736 47.6818 130.898 48.0994C131.06 48.517 131.141 49.0312 131.141 49.642V50.0682H126.095V49.1989H130.118C130.118 48.8295 130.044 48.5 129.896 48.2102C129.751 47.9205 129.544 47.6918 129.274 47.5241C129.007 47.3565 128.692 47.2727 128.328 47.2727C127.928 47.2727 127.581 47.3722 127.288 47.571C126.999 47.767 126.776 48.0227 126.619 48.3381C126.463 48.6534 126.385 48.9915 126.385 49.3523V49.9318C126.385 50.4261 126.47 50.8452 126.641 51.1889C126.814 51.5298 127.054 51.7898 127.361 51.9688C127.668 52.1449 128.024 52.233 128.43 52.233C128.695 52.233 128.933 52.196 129.146 52.1222C129.362 52.0455 129.548 51.9318 129.705 51.7812C129.861 51.6278 129.982 51.4375 130.067 51.2102L131.038 51.483C130.936 51.8125 130.764 52.1023 130.523 52.3523C130.281 52.5994 129.983 52.7926 129.628 52.9318C129.273 53.0682 128.874 53.1364 128.43 53.1364ZM132.67 53V46.4545H133.642V47.4432H133.71C133.83 47.1193 134.045 46.8565 134.358 46.6548C134.67 46.4531 135.023 46.3523 135.415 46.3523C135.489 46.3523 135.581 46.3537 135.692 46.3565C135.803 46.3594 135.886 46.3636 135.943 46.3693V47.392C135.909 47.3835 135.831 47.3707 135.709 47.3537C135.589 47.3338 135.463 47.3239 135.33 47.3239C135.011 47.3239 134.727 47.3906 134.477 47.5241C134.23 47.6548 134.034 47.8366 133.889 48.0696C133.747 48.2997 133.676 48.5625 133.676 48.858V53H132.67ZM140.169 47V46.233C140.169 46 140.211 45.7528 140.293 45.4915C140.378 45.2273 140.5 44.973 140.659 44.7287C140.821 44.4815 141.016 44.267 141.243 44.0852L141.789 44.5284C141.61 44.7841 141.453 45.0511 141.32 45.3295C141.189 45.6051 141.124 45.9006 141.124 46.2159V47H140.169ZM142.351 47V46.233C142.351 46 142.392 45.7528 142.475 45.4915C142.56 45.2273 142.682 44.973 142.841 44.7287C143.003 44.4815 143.198 44.267 143.425 44.0852L143.971 44.5284C143.792 44.7841 143.635 45.0511 143.502 45.3295C143.371 45.6051 143.306 45.9006 143.306 46.2159V47H142.351ZM158.928 44.2727V45.0398C158.928 45.2727 158.885 45.5213 158.8 45.7855C158.718 46.0469 158.596 46.3011 158.434 46.5483C158.275 46.7926 158.081 47.0057 157.854 47.1875L157.309 46.7443C157.488 46.4886 157.642 46.223 157.773 45.9474C157.907 45.669 157.973 45.3722 157.973 45.0568V44.2727H158.928ZM161.11 44.2727V45.0398C161.11 45.2727 161.067 45.5213 160.982 45.7855C160.9 46.0469 160.777 46.3011 160.615 46.5483C160.456 46.7926 160.263 47.0057 160.036 47.1875L159.49 46.7443C159.669 46.4886 159.824 46.223 159.955 45.9474C160.088 45.669 160.155 45.3722 160.155 45.0568V44.2727H161.11ZM167.47 53L165.475 46.4545H166.532L167.947 51.4659H168.015L169.413 46.4545H170.487L171.868 51.4489H171.936L173.35 46.4545H174.407L172.413 53H171.424L169.993 47.9716H169.89L168.458 53H167.47ZM175.737 53V46.4545H176.743V53H175.737ZM176.248 45.3636C176.052 45.3636 175.883 45.2969 175.741 45.1634C175.602 45.0298 175.532 44.8693 175.532 44.6818C175.532 44.4943 175.602 44.3338 175.741 44.2003C175.883 44.0668 176.052 44 176.248 44C176.444 44 176.612 44.0668 176.751 44.2003C176.893 44.3338 176.964 44.4943 176.964 44.6818C176.964 44.8693 176.893 45.0298 176.751 45.1634C176.612 45.2969 176.444 45.3636 176.248 45.3636ZM181.431 46.4545V47.3068H178.039V46.4545H181.431ZM179.028 44.8864H180.033V51.125C180.033 51.4091 180.075 51.6222 180.157 51.7642C180.242 51.9034 180.35 51.9972 180.481 52.0455C180.614 52.0909 180.755 52.1136 180.903 52.1136C181.013 52.1136 181.104 52.108 181.175 52.0966C181.246 52.0824 181.303 52.071 181.346 52.0625L181.55 52.9659C181.482 52.9915 181.387 53.017 181.265 53.0426C181.143 53.071 180.988 53.0852 180.8 53.0852C180.516 53.0852 180.238 53.0241 179.965 52.902C179.695 52.7798 179.471 52.5938 179.292 52.3438C179.116 52.0938 179.028 51.7784 179.028 51.3977V44.8864ZM184.09 49.0625V53H183.085V44.2727H184.09V47.4773H184.175C184.329 47.1392 184.559 46.8707 184.866 46.6719C185.175 46.4702 185.587 46.3693 186.102 46.3693C186.548 46.3693 186.938 46.4588 187.273 46.6378C187.609 46.8139 187.869 47.0852 188.053 47.4517C188.241 47.8153 188.335 48.2784 188.335 48.8409V53H187.329V48.9091C187.329 48.3892 187.194 47.9872 186.924 47.7031C186.657 47.4162 186.286 47.2727 185.812 47.2727C185.482 47.2727 185.187 47.3423 184.925 47.4815C184.667 47.6207 184.462 47.8239 184.312 48.0909C184.164 48.358 184.09 48.6818 184.09 49.0625ZM193.208 47V46.233C193.208 46 193.25 45.7528 193.332 45.4915C193.417 45.2273 193.539 44.973 193.699 44.7287C193.86 44.4815 194.055 44.267 194.282 44.0852L194.828 44.5284C194.649 44.7841 194.493 45.0511 194.359 45.3295C194.228 45.6051 194.163 45.9006 194.163 46.2159V47H193.208ZM195.39 47V46.233C195.39 46 195.431 45.7528 195.514 45.4915C195.599 45.2273 195.721 44.973 195.88 44.7287C196.042 44.4815 196.237 44.267 196.464 44.0852L197.01 44.5284C196.831 44.7841 196.674 45.0511 196.541 45.3295C196.41 45.6051 196.345 45.9006 196.345 46.2159V47H195.39ZM211.557 44.2727V45.0398C211.557 45.2727 211.514 45.5213 211.429 45.7855C211.347 46.0469 211.224 46.3011 211.062 46.5483C210.903 46.7926 210.71 47.0057 210.483 47.1875L209.938 46.7443C210.116 46.4886 210.271 46.223 210.402 45.9474C210.536 45.669 210.602 45.3722 210.602 45.0568V44.2727H211.557ZM213.739 44.2727V45.0398C213.739 45.2727 213.696 45.5213 213.611 45.7855C213.528 46.0469 213.406 46.3011 213.244 46.5483C213.085 46.7926 212.892 47.0057 212.665 47.1875L212.119 46.7443C212.298 46.4886 212.453 46.223 212.584 45.9474C212.717 45.669 212.784 45.3722 212.784 45.0568V44.2727H213.739Z" fill="#505050"/>
<path d="M148.213 49.9659H149.781L150.569 50.9801L151.345 51.8835L152.806 53.7159H151.085L150.079 52.4801L149.564 51.7472L148.213 49.9659ZM152.939 48.6364C152.939 49.5881 152.758 50.3977 152.397 51.0653C152.039 51.733 151.551 52.2429 150.931 52.5952C150.315 52.9446 149.622 53.1193 148.852 53.1193C148.076 53.1193 147.38 52.9432 146.764 52.5909C146.147 52.2386 145.66 51.7287 145.302 51.0611C144.944 50.3935 144.765 49.5852 144.765 48.6364C144.765 47.6847 144.944 46.875 145.302 46.2074C145.66 45.5398 146.147 45.0312 146.764 44.6818C147.38 44.3295 148.076 44.1534 148.852 44.1534C149.622 44.1534 150.315 44.3295 150.931 44.6818C151.551 45.0312 152.039 45.5398 152.397 46.2074C152.758 46.875 152.939 47.6847 152.939 48.6364ZM151.068 48.6364C151.068 48.0199 150.975 47.5 150.791 47.0767C150.609 46.6534 150.352 46.3324 150.02 46.1136C149.687 45.8949 149.298 45.7855 148.852 45.7855C148.406 45.7855 148.017 45.8949 147.684 46.1136C147.352 46.3324 147.093 46.6534 146.909 47.0767C146.727 47.5 146.636 48.0199 146.636 48.6364C146.636 49.2528 146.727 49.7727 146.909 50.196C147.093 50.6193 147.352 50.9403 147.684 51.1591C148.017 51.3778 148.406 51.4872 148.852 51.4872C149.298 51.4872 149.687 51.3778 150.02 51.1591C150.352 50.9403 150.609 50.6193 150.791 50.196C150.975 49.7727 151.068 49.2528 151.068 48.6364ZM155.332 51.9858C155.051 51.9858 154.81 51.8864 154.608 51.6875C154.409 51.4886 154.31 51.2472 154.31 50.9631C154.31 50.6847 154.409 50.446 154.608 50.2472C154.81 50.0483 155.051 49.9489 155.332 49.9489C155.605 49.9489 155.844 50.0483 156.048 50.2472C156.253 50.446 156.355 50.6847 156.355 50.9631C156.355 51.1506 156.307 51.3224 156.21 51.4787C156.116 51.6321 155.993 51.7557 155.839 51.8494C155.686 51.9403 155.517 51.9858 155.332 51.9858ZM155.332 47.7031C155.051 47.7031 154.81 47.6037 154.608 47.4048C154.409 47.206 154.31 46.9645 154.31 46.6804C154.31 46.402 154.409 46.1648 154.608 45.9688C154.81 45.7699 155.051 45.6705 155.332 45.6705C155.605 45.6705 155.844 45.7699 156.048 45.9688C156.253 46.1648 156.355 46.402 156.355 46.6804C156.355 46.8707 156.307 47.044 156.21 47.2003C156.116 47.3537 155.993 47.4759 155.839 47.5668C155.686 47.6577 155.517 47.7031 155.332 47.7031Z" fill="#75F0F8"/>
<path d="M199.462 53H197.485L200.498 44.2727H202.875L205.884 53H203.907L201.721 46.267H201.652L199.462 53ZM199.338 49.5696H204.009V51.0099H199.338V49.5696ZM207.961 51.9858C207.68 51.9858 207.439 51.8864 207.237 51.6875C207.038 51.4886 206.939 51.2472 206.939 50.9631C206.939 50.6847 207.038 50.446 207.237 50.2472C207.439 50.0483 207.68 49.9489 207.961 49.9489C208.234 49.9489 208.473 50.0483 208.677 50.2472C208.882 50.446 208.984 50.6847 208.984 50.9631C208.984 51.1506 208.936 51.3224 208.839 51.4787C208.745 51.6321 208.622 51.7557 208.468 51.8494C208.315 51.9403 208.146 51.9858 207.961 51.9858ZM207.961 47.7031C207.68 47.7031 207.439 47.6037 207.237 47.4048C207.038 47.206 206.939 46.9645 206.939 46.6804C206.939 46.402 207.038 46.1648 207.237 45.9688C207.439 45.7699 207.68 45.6705 207.961 45.6705C208.234 45.6705 208.473 45.7699 208.677 45.9688C208.882 46.1648 208.984 46.402 208.984 46.6804C208.984 46.8707 208.936 47.044 208.839 47.2003C208.745 47.3537 208.622 47.4759 208.468 47.5668C208.315 47.6577 208.146 47.7031 207.961 47.7031Z" fill="#F875EB"/>
<path d="M362.742 135.273V144H360.897V135.273H362.742ZM366.042 140.216V144H364.226V137.455H365.956V138.609H366.033C366.178 138.229 366.421 137.928 366.762 137.706C367.103 137.482 367.516 137.369 368.002 137.369C368.456 137.369 368.853 137.469 369.191 137.668C369.529 137.866 369.792 138.151 369.979 138.52C370.167 138.886 370.26 139.324 370.26 139.832V144H368.445V140.156C368.448 139.756 368.346 139.443 368.138 139.219C367.931 138.991 367.645 138.878 367.282 138.878C367.037 138.878 366.822 138.93 366.634 139.036C366.449 139.141 366.305 139.294 366.199 139.496C366.097 139.695 366.045 139.935 366.042 140.216ZM374.103 144.107C373.606 144.107 373.156 143.979 372.752 143.723C372.352 143.464 372.034 143.085 371.798 142.585C371.565 142.082 371.448 141.466 371.448 140.736C371.448 139.986 371.569 139.362 371.811 138.865C372.052 138.365 372.373 137.991 372.774 137.744C373.177 137.494 373.619 137.369 374.099 137.369C374.465 137.369 374.771 137.432 375.015 137.557C375.262 137.679 375.461 137.832 375.612 138.017C375.765 138.199 375.882 138.378 375.961 138.554H376.017V135.273H377.828V144H376.038V142.952H375.961C375.876 143.134 375.755 143.314 375.599 143.493C375.445 143.669 375.245 143.815 374.998 143.932C374.754 144.048 374.455 144.107 374.103 144.107ZM374.678 142.662C374.971 142.662 375.218 142.582 375.42 142.423C375.624 142.261 375.781 142.036 375.889 141.746C375.999 141.456 376.055 141.116 376.055 140.727C376.055 140.338 376.001 140 375.893 139.713C375.785 139.426 375.629 139.205 375.424 139.048C375.22 138.892 374.971 138.814 374.678 138.814C374.38 138.814 374.129 138.895 373.924 139.057C373.72 139.219 373.565 139.443 373.46 139.73C373.355 140.017 373.302 140.349 373.302 140.727C373.302 141.108 373.355 141.445 373.46 141.737C373.568 142.027 373.722 142.254 373.924 142.419C374.129 142.581 374.38 142.662 374.678 142.662ZM383.518 141.213V137.455H385.333V144H383.59V142.811H383.522C383.374 143.195 383.128 143.503 382.785 143.736C382.444 143.969 382.028 144.085 381.536 144.085C381.099 144.085 380.714 143.986 380.381 143.787C380.049 143.588 379.789 143.305 379.601 142.939C379.417 142.572 379.323 142.134 379.32 141.622V137.455H381.135V141.298C381.138 141.685 381.242 141.99 381.447 142.214C381.651 142.439 381.925 142.551 382.269 142.551C382.488 142.551 382.692 142.501 382.883 142.402C383.073 142.3 383.226 142.149 383.343 141.95C383.462 141.751 383.52 141.506 383.518 141.213ZM389.742 144.128C389.072 144.128 388.495 143.986 388.012 143.702C387.532 143.415 387.163 143.017 386.904 142.509C386.649 142 386.521 141.415 386.521 140.753C386.521 140.082 386.65 139.494 386.909 138.989C387.17 138.48 387.541 138.084 388.021 137.8C388.501 137.513 389.072 137.369 389.734 137.369C390.305 137.369 390.805 137.473 391.234 137.68C391.663 137.888 392.002 138.179 392.252 138.554C392.502 138.929 392.64 139.369 392.666 139.875H390.953C390.904 139.548 390.776 139.286 390.569 139.087C390.365 138.885 390.096 138.784 389.764 138.784C389.482 138.784 389.237 138.861 389.026 139.014C388.819 139.165 388.657 139.385 388.541 139.675C388.424 139.964 388.366 140.315 388.366 140.727C388.366 141.145 388.423 141.5 388.536 141.793C388.653 142.085 388.816 142.308 389.026 142.462C389.237 142.615 389.482 142.692 389.764 142.692C389.971 142.692 390.157 142.649 390.322 142.564C390.49 142.479 390.627 142.355 390.735 142.193C390.846 142.028 390.919 141.831 390.953 141.601H392.666C392.637 142.101 392.501 142.541 392.257 142.922C392.015 143.3 391.681 143.595 391.255 143.808C390.829 144.021 390.325 144.128 389.742 144.128ZM397.309 137.455V138.818H393.368V137.455H397.309ZM394.263 135.886H396.078V141.989C396.078 142.156 396.104 142.287 396.155 142.381C396.206 142.472 396.277 142.536 396.368 142.572C396.461 142.609 396.569 142.628 396.692 142.628C396.777 142.628 396.862 142.621 396.947 142.607C397.032 142.589 397.098 142.577 397.143 142.568L397.429 143.919C397.338 143.947 397.21 143.98 397.045 144.017C396.881 144.057 396.68 144.081 396.444 144.089C396.007 144.107 395.623 144.048 395.294 143.915C394.967 143.781 394.713 143.574 394.531 143.293C394.349 143.011 394.26 142.656 394.263 142.227V135.886ZM398.492 144V137.455H400.307V144H398.492ZM399.404 136.611C399.134 136.611 398.903 136.521 398.709 136.342C398.519 136.161 398.424 135.943 398.424 135.69C398.424 135.44 398.519 135.226 398.709 135.047C398.903 134.865 399.134 134.774 399.404 134.774C399.674 134.774 399.904 134.865 400.094 135.047C400.287 135.226 400.384 135.44 400.384 135.69C400.384 135.943 400.287 136.161 400.094 136.342C399.904 136.521 399.674 136.611 399.404 136.611ZM404.719 144.128C404.057 144.128 403.485 143.987 403.002 143.706C402.521 143.422 402.151 143.027 401.889 142.521C401.628 142.013 401.497 141.423 401.497 140.753C401.497 140.077 401.628 139.486 401.889 138.98C402.151 138.472 402.521 138.077 403.002 137.795C403.485 137.511 404.057 137.369 404.719 137.369C405.381 137.369 405.952 137.511 406.432 137.795C406.915 138.077 407.287 138.472 407.548 138.98C407.81 139.486 407.941 140.077 407.941 140.753C407.941 141.423 407.81 142.013 407.548 142.521C407.287 143.027 406.915 143.422 406.432 143.706C405.952 143.987 405.381 144.128 404.719 144.128ZM404.727 142.722C405.029 142.722 405.28 142.636 405.482 142.466C405.683 142.293 405.835 142.057 405.938 141.759C406.043 141.46 406.095 141.121 406.095 140.74C406.095 140.359 406.043 140.02 405.938 139.722C405.835 139.423 405.683 139.187 405.482 139.014C405.28 138.841 405.029 138.754 404.727 138.754C404.423 138.754 404.168 138.841 403.96 139.014C403.756 139.187 403.601 139.423 403.496 139.722C403.394 140.02 403.343 140.359 403.343 140.74C403.343 141.121 403.394 141.46 403.496 141.759C403.601 142.057 403.756 142.293 403.96 142.466C404.168 142.636 404.423 142.722 404.727 142.722ZM410.936 140.216V144H409.121V137.455H410.851V138.609H410.928C411.073 138.229 411.316 137.928 411.656 137.706C411.997 137.482 412.411 137.369 412.896 137.369C413.351 137.369 413.747 137.469 414.085 137.668C414.423 137.866 414.686 138.151 414.874 138.52C415.061 138.886 415.155 139.324 415.155 139.832V144H413.34V140.156C413.343 139.756 413.24 139.443 413.033 139.219C412.825 138.991 412.54 138.878 412.176 138.878C411.932 138.878 411.716 138.93 411.529 139.036C411.344 139.141 411.199 139.294 411.094 139.496C410.992 139.695 410.939 139.935 410.936 140.216ZM370.032 159V150.273H371.877V153.874H375.623V150.273H377.464V159H375.623V155.395H371.877V159H370.032ZM381.934 159.128C381.261 159.128 380.681 158.991 380.195 158.719C379.712 158.443 379.34 158.054 379.079 157.551C378.817 157.045 378.687 156.447 378.687 155.757C378.687 155.084 378.817 154.493 379.079 153.984C379.34 153.476 379.708 153.08 380.183 152.795C380.66 152.511 381.219 152.369 381.862 152.369C382.293 152.369 382.695 152.439 383.067 152.578C383.442 152.714 383.769 152.92 384.048 153.196C384.329 153.472 384.548 153.818 384.704 154.236C384.86 154.651 384.938 155.136 384.938 155.693V156.192H379.411V155.067H383.229C383.229 154.805 383.173 154.574 383.059 154.372C382.945 154.17 382.788 154.013 382.586 153.899C382.387 153.783 382.156 153.724 381.891 153.724C381.616 153.724 381.371 153.788 381.158 153.916C380.948 154.041 380.783 154.21 380.664 154.423C380.545 154.634 380.484 154.868 380.481 155.126V156.196C380.481 156.52 380.54 156.8 380.66 157.036C380.782 157.271 380.954 157.453 381.175 157.581C381.397 157.709 381.66 157.773 381.964 157.773C382.165 157.773 382.35 157.744 382.518 157.688C382.685 157.631 382.829 157.545 382.948 157.432C383.067 157.318 383.158 157.179 383.221 157.014L384.9 157.125C384.815 157.528 384.64 157.881 384.376 158.182C384.114 158.48 383.776 158.713 383.362 158.881C382.95 159.045 382.474 159.128 381.934 159.128ZM387.989 159.124C387.572 159.124 387.2 159.051 386.873 158.906C386.546 158.759 386.288 158.541 386.097 158.254C385.91 157.964 385.816 157.604 385.816 157.172C385.816 156.808 385.883 156.503 386.016 156.256C386.15 156.009 386.332 155.81 386.562 155.659C386.792 155.509 387.053 155.395 387.346 155.318C387.641 155.241 387.951 155.188 388.275 155.156C388.656 155.116 388.962 155.08 389.195 155.045C389.428 155.009 389.597 154.955 389.702 154.884C389.808 154.812 389.86 154.707 389.86 154.568V154.543C389.86 154.273 389.775 154.064 389.604 153.916C389.437 153.768 389.198 153.695 388.888 153.695C388.562 153.695 388.302 153.767 388.109 153.912C387.915 154.054 387.788 154.233 387.725 154.449L386.046 154.312C386.131 153.915 386.299 153.571 386.549 153.281C386.799 152.989 387.121 152.764 387.516 152.608C387.914 152.449 388.374 152.369 388.897 152.369C389.261 152.369 389.609 152.412 389.941 152.497C390.276 152.582 390.573 152.714 390.832 152.893C391.093 153.072 391.299 153.303 391.45 153.584C391.6 153.862 391.675 154.196 391.675 154.585V159H389.954V158.092H389.903C389.798 158.297 389.657 158.477 389.481 158.634C389.305 158.787 389.093 158.908 388.846 158.996C388.599 159.081 388.313 159.124 387.989 159.124ZM388.509 157.871C388.776 157.871 389.012 157.818 389.217 157.713C389.421 157.605 389.582 157.46 389.698 157.278C389.815 157.097 389.873 156.891 389.873 156.661V155.966C389.816 156.003 389.738 156.037 389.638 156.068C389.542 156.097 389.433 156.124 389.31 156.149C389.188 156.172 389.066 156.193 388.944 156.213C388.822 156.23 388.711 156.246 388.612 156.26C388.398 156.291 388.212 156.341 388.053 156.409C387.894 156.477 387.771 156.57 387.683 156.686C387.594 156.8 387.55 156.942 387.55 157.112C387.55 157.359 387.64 157.548 387.819 157.679C388.001 157.807 388.231 157.871 388.509 157.871ZM395.496 159.107C394.999 159.107 394.548 158.979 394.145 158.723C393.744 158.464 393.426 158.085 393.19 157.585C392.957 157.082 392.841 156.466 392.841 155.736C392.841 154.986 392.962 154.362 393.203 153.865C393.445 153.365 393.766 152.991 394.166 152.744C394.57 152.494 395.011 152.369 395.491 152.369C395.858 152.369 396.163 152.432 396.408 152.557C396.655 152.679 396.854 152.832 397.004 153.017C397.158 153.199 397.274 153.378 397.354 153.554H397.409V150.273H399.22V159H397.43V157.952H397.354C397.268 158.134 397.148 158.314 396.991 158.493C396.838 158.669 396.638 158.815 396.391 158.932C396.146 159.048 395.848 159.107 395.496 159.107ZM396.071 157.662C396.364 157.662 396.611 157.582 396.812 157.423C397.017 157.261 397.173 157.036 397.281 156.746C397.392 156.456 397.447 156.116 397.447 155.727C397.447 155.338 397.393 155 397.286 154.713C397.178 154.426 397.021 154.205 396.817 154.048C396.612 153.892 396.364 153.814 396.071 153.814C395.773 153.814 395.521 153.895 395.317 154.057C395.112 154.219 394.957 154.443 394.852 154.73C394.747 155.017 394.695 155.349 394.695 155.727C394.695 156.108 394.747 156.445 394.852 156.737C394.96 157.027 395.115 157.254 395.317 157.419C395.521 157.581 395.773 157.662 396.071 157.662ZM406.159 154.321L404.497 154.423C404.468 154.281 404.407 154.153 404.314 154.04C404.22 153.923 404.096 153.831 403.943 153.763C403.792 153.692 403.612 153.656 403.402 153.656C403.12 153.656 402.883 153.716 402.69 153.835C402.497 153.952 402.4 154.108 402.4 154.304C402.4 154.46 402.463 154.592 402.588 154.7C402.713 154.808 402.927 154.895 403.231 154.96L404.416 155.199C405.052 155.33 405.527 155.54 405.839 155.83C406.152 156.119 406.308 156.5 406.308 156.972C406.308 157.401 406.181 157.777 405.929 158.101C405.679 158.425 405.335 158.678 404.897 158.859C404.463 159.038 403.961 159.128 403.393 159.128C402.527 159.128 401.836 158.947 401.322 158.587C400.811 158.223 400.511 157.729 400.423 157.104L402.208 157.01C402.262 157.274 402.393 157.476 402.6 157.615C402.808 157.751 403.074 157.82 403.397 157.82C403.716 157.82 403.971 157.759 404.164 157.636C404.36 157.511 404.46 157.351 404.463 157.155C404.46 156.99 404.39 156.855 404.254 156.75C404.118 156.642 403.907 156.56 403.623 156.503L402.49 156.277C401.85 156.149 401.375 155.928 401.062 155.612C400.752 155.297 400.598 154.895 400.598 154.406C400.598 153.986 400.711 153.624 400.939 153.32C401.169 153.016 401.491 152.781 401.906 152.616C402.324 152.452 402.812 152.369 403.372 152.369C404.199 152.369 404.849 152.544 405.324 152.893C405.801 153.243 406.079 153.719 406.159 154.321Z" fill="#505050"/>
<path d="M425 165L415 159.226V170.774L425 165ZM350 166H416V164H350V166Z" fill="#DDDDDD"/>
<path d="M58 59L348 59" stroke="#848484" stroke-dasharray="2 2"/>
<path d="M58 59L58 66" stroke="#848484" stroke-dasharray="2 2"/>
<path d="M348 141L58 141" stroke="#848484" stroke-opacity="0.5" stroke-dasharray="2 2"/>
<path d="M348 59L348 66" stroke="#848484" stroke-dasharray="2 2"/>
</g>
<defs>
<clipPath id="clip0_84_240">
<rect width="530" height="186" fill="white"/>
</clipPath>
</defs>
</svg>
